<?xml version="1.0" encoding="UTF-8"?>
<svg width="30px" height="30px" viewBox="0 0 30 30" version="1.1" xmlns="http://www.w3.org/2000/svg" xmlns:xlink="http://www.w3.org/1999/xlink">
    <!-- Generator: Sketch 50.2 (55047) - http://www.bohemiancoding.com/sketch -->
    <title>Group 4</title>
    <desc>Created with Sketch.</desc>
    <defs>
        <polygon id="path-1" points="0.000117647059 7.80487805e-05 19.7015686 7.80487805e-05 19.7015686 15.9325659 0.000117647059 15.9325659"></polygon>
    </defs>
    <g id="temporary" stroke="none" stroke-width="1" fill="none" fill-rule="evenodd">
        <g id="home-desktop-protected" transform="translate(-467.000000, -20.000000)">
            <g id="Group-4" transform="translate(467.000000, 20.000000)">
                <circle id="Oval-3-Copy" fill="#F0F0F0" fill-rule="nonzero" cx="15" cy="15" r="15"></circle>
                <g id="Group-3" transform="translate(5.000000, 7.000000)">
                    <mask id="mask-2" fill="white">
                        <use xlink:href="#path-1"></use>
                    </mask>
                    <g id="Clip-2"></g>
                    <path d="M19.7016863,1.88589268 C18.9765882,2.20589268 18.1973725,2.42247805 17.3801176,2.51925854 C18.2146275,2.02130732 18.8565882,1.23379512 19.1573725,0.294087805 C18.3773725,0.754965854 17.5126667,1.09018537 16.5914902,1.27047805 C15.853451,0.488039024 14.8028627,-0.000156097561 13.6405098,-0.000156097561 C11.4083529,-0.000156097561 9.59815686,1.80120976 9.59815686,4.02247805 C9.59815686,4.33818537 9.63423529,4.64452683 9.70247059,4.93877073 C6.34364706,4.77174634 3.36560784,3.17057561 1.3714902,0.735843902 C1.02403922,1.33096585 0.824431373,2.02130732 0.824431373,2.75847805 C0.824431373,4.1536 1.53776471,5.3856 2.62207843,6.10638049 C1.95972549,6.0860878 1.33658824,5.9038439 0.791490196,5.60296585 L0.791490196,5.65369756 C0.791490196,7.60218537 2.18521569,9.22833171 4.03345098,9.59789268 C3.69501961,9.6896 3.33698039,9.73955122 2.9687451,9.73955122 C2.7087451,9.73955122 2.45462745,9.71379512 2.20835294,9.66657561 C2.72247059,11.2650146 4.21501961,12.427161 5.98364706,12.460722 C4.60129412,13.5393561 2.85854902,14.182478 0.963254902,14.182478 C0.637764706,14.182478 0.316196078,14.1625756 0.000117647059,14.1262829 C1.7887451,15.2665756 3.91345098,15.932722 6.19698039,15.932722 C13.6314902,15.932722 17.6969804,9.80472195 17.6969804,4.48842927 C17.6969804,4.31477073 17.6922745,4.1411122 17.6856078,3.96745366 C18.4738431,3.40120976 19.158549,2.69291707 19.7016863,1.88589268" id="Fill-1" fill="#1A1A1A" mask="url(#mask-2)"></path>
                </g>
            </g>
        </g>
    </g>
</svg>