<?xml version="1.0" encoding="UTF-8"?>
<svg width="30px" height="30px" viewBox="0 0 30 30" version="1.1" xmlns="http://www.w3.org/2000/svg" xmlns:xlink="http://www.w3.org/1999/xlink">
    <!-- Generator: Sketch 50.2 (55047) - http://www.bohemiancoding.com/sketch -->
    <title>Group</title>
    <desc>Created with Sketch.</desc>
    <defs>
        <polygon id="path-1" points="1.78571429e-05 0.00567089109 17.9943214 0.00567089109 17.9943214 17.9643564 1.78571429e-05 17.9643564"></polygon>
    </defs>
    <g id="temporary" stroke="none" stroke-width="1" fill="none" fill-rule="evenodd">
        <g id="home-desktop-protected" transform="translate(-587.000000, -20.000000)">
            <g id="Group" transform="translate(587.000000, 20.000000)">
                <circle id="Oval-3-Copy-3" fill="#1A1A1A" fill-rule="nonzero" cx="15" cy="15" r="15"></circle>
                <g id="Group-8" transform="translate(6.000000, 6.000000)">
                    <g id="Group-3" transform="translate(0.000000, 0.029976)">
                        <mask id="mask-2" fill="white">
                            <use xlink:href="#path-1"></use>
                        </mask>
                        <g id="Clip-2"></g>
                        <path d="M8.99716071,0.00567089109 C6.55369643,0.00567089109 6.24726786,0.0160075248 5.28766071,0.0597065347 C4.32998214,0.103298614 3.67598214,0.255104554 3.10366071,0.477092673 C2.51205357,0.706530297 2.01026786,1.01356396 1.51008929,1.51275208 C1.009875,2.01197584 0.702267857,2.51273228 0.472339286,3.10316792 C0.249910714,3.67435604 0.0978392857,4.32706099 0.054125,5.28284317 C0.0103392857,6.24058574 1.78571429e-05,6.54633624 1.78571429e-05,8.98499762 C1.78571429e-05,11.423659 0.0103392857,11.7294451 0.054125,12.6871877 C0.0978392857,13.6429343 0.249910714,14.2956749 0.472339286,14.8668273 C0.702267857,15.457263 1.009875,15.958055 1.51008929,16.4572432 C2.01026786,16.9564669 2.51205357,17.263465 3.10366071,17.4929739 C3.67598214,17.7149263 4.32998214,17.8667323 5.28766071,17.91036 C6.24726786,17.9540234 6.55369643,17.96436 8.99716071,17.96436 C11.4406607,17.96436 11.7470179,17.9540234 12.7066607,17.91036 C13.6643393,17.8667323 14.3183393,17.7149263 14.8906607,17.4929739 C15.4823036,17.263465 15.9840536,16.9564669 16.4842321,16.4572432 C16.9844464,15.958055 17.2920536,15.4572986 17.5219821,14.8668273 C17.7444107,14.2956749 17.8965179,13.6429343 17.9401964,12.6871877 C17.9839821,11.7294451 17.9943393,11.423659 17.9943393,8.98499762 C17.9943393,6.54637188 17.9839821,6.24058574 17.9401964,5.28284317 C17.8965179,4.32706099 17.7444107,3.67435604 17.5219821,3.10316792 C17.2920536,2.51273228 16.9844464,2.01197584 16.4842321,1.51275208 C15.9840536,1.01356396 15.4823036,0.706530297 14.8906607,0.477092673 C14.3183393,0.255104554 13.6643393,0.103298614 12.7066607,0.0597065347 C11.7470179,0.0160075248 11.4406607,0.00567089109 8.99716071,0.00567089109 M8.99716071,1.62356792 C11.3995179,1.62356792 11.6840536,1.63269267 12.6327679,1.67589267 C13.5099821,1.71584911 13.986375,1.8621303 14.3034107,1.98510059 C14.723375,2.14799168 15.023125,2.3425699 15.3379464,2.65676792 C15.6527679,2.97100158 15.8477321,3.27012238 16.0109821,3.68925505 C16.1341607,4.00566297 16.2807321,4.48111248 16.3207679,5.3565897 C16.3640179,6.30342535 16.3731964,6.58743327 16.3731964,8.98499762 C16.3731964,11.3825976 16.3640179,11.6666055 16.3207679,12.6134055 C16.2807321,13.4889184 16.1341607,13.9643679 16.0109821,14.2807758 C15.8477321,14.6998729 15.6527679,14.9990293 15.3379464,15.3132273 C15.023125,15.627461 14.723375,15.8220392 14.3034107,15.9849303 C13.986375,16.107865 13.5099821,16.2541818 12.6327679,16.2941026 C11.6841964,16.3373026 11.3996964,16.346463 8.99716071,16.346463 C6.594625,16.346463 6.310125,16.3373026 5.36155357,16.2941026 C4.48433929,16.2541818 4.00791071,16.107865 3.690875,15.9849303 C3.27094643,15.8220392 2.97119643,15.627461 2.656375,15.3132273 C2.34155357,14.9990293 2.14655357,14.6998729 1.98333929,14.2807758 C1.86016071,13.9643679 1.71358929,13.4889184 1.67355357,12.6134412 C1.63026786,11.6666055 1.621125,11.3825976 1.621125,8.98499762 C1.621125,6.58743327 1.63026786,6.30342535 1.67355357,5.3565897 C1.71358929,4.48111248 1.86016071,4.00566297 1.98333929,3.68925505 C2.14655357,3.27012238 2.34155357,2.97100158 2.656375,2.65680356 C2.97119643,2.3425699 3.27094643,2.14799168 3.690875,1.98510059 C4.00791071,1.8621303 4.48433929,1.71584911 5.36151786,1.67589267 C6.31026786,1.63269267 6.59480357,1.62356792 8.99716071,1.62356792" id="Fill-1" fill="#FFFFFF" mask="url(#mask-2)"></path>
                    </g>
                    <path d="M8.99716071,12.0081065 C7.34083929,12.0081065 5.99808929,10.6680154 5.99808929,9.01497386 C5.99808929,7.36193228 7.34083929,6.02187683 8.99716071,6.02187683 C10.6534821,6.02187683 11.9962321,7.36193228 11.9962321,9.01497386 C11.9962321,10.6680154 10.6534821,12.0081065 8.99716071,12.0081065 M8.99716071,4.4039798 C6.44551786,4.4039798 4.37698214,6.46838376 4.37698214,9.01497386 C4.37698214,11.5615996 6.44551786,13.6260036 8.99716071,13.6260036 C11.5488036,13.6260036 13.6173036,11.5615996 13.6173036,9.01497386 C13.6173036,6.46838376 11.5488036,4.4039798 8.99716071,4.4039798" id="Fill-4" fill="#FFFFFF"></path>
                    <path d="M14.8795214,4.22179842 C14.8795214,4.81690337 14.3961643,5.29930337 13.7998786,5.29930337 C13.2035929,5.29930337 12.7202,4.81690337 12.7202,4.22179842 C12.7202,3.62669347 13.2035929,3.14429347 13.7998786,3.14429347 C14.3961643,3.14429347 14.8795214,3.62669347 14.8795214,4.22179842" id="Fill-6" fill="#FFFFFF"></path>
                </g>
            </g>
        </g>
    </g>
</svg>